<svg id="SvgjsSvg1006" width="288" height="288" xmlns="http://www.w3.org/2000/svg" version="1.1" xmlns:xlink="http://www.w3.org/1999/xlink" xmlns:svgjs="http://svgjs.com/svgjs"><defs id="SvgjsDefs1007"></defs><g id="SvgjsG1008" transform="matrix(1,0,0,1,0,0)"><svg xmlns="http://www.w3.org/2000/svg" xmlns:xlink="http://www.w3.org/1999/xlink" width="288" height="288" data-name="Group 2" viewBox="0 0 1366 769"><defs><linearGradient id="a" x1="1.193" x2="-.717" y1=".101" y2="1.389" gradientUnits="objectBoundingBox"><stop offset="0" stop-color="#ddf516" class="stopColora52eff svgShape"></stop><stop offset=".498" stop-color="#47f8c2" class="stopColor6747f8 svgShape"></stop><stop offset=".647" stop-color="#49f7c2" class="stopColor6049f7 svgShape"></stop><stop offset=".863" stop-color="#4cf4a7" class="stopColor4c51f4 svgShape"></stop><stop offset="1" stop-color="#3df39f" class="stopColor3d58f3 svgShape"></stop></linearGradient><linearGradient id="b" x1="1.171" x2=".189" y1=".022" y2="1.068" gradientUnits="objectBoundingBox"><stop offset="0" stop-color="#ffffff" stop-opacity=".6" class="stopColorfff svgShape"></stop><stop offset=".686" stop-color="#ffffff" stop-opacity=".051" class="stopColorfff svgShape"></stop><stop offset="1" stop-color="#ffffff" stop-opacity="0" class="stopColorfff svgShape"></stop></linearGradient><linearGradient id="c" x1=".699" x2=".209" y1=".078" y2="1.476" xlink:href="#a"></linearGradient><linearGradient id="d" x1="2.48" x2=".032" y1="-5.297" y2="2.248" xlink:href="#a"></linearGradient><linearGradient id="e" x1="2.465" x2=".017" y1="-4.879" y2="2.068" xlink:href="#a"></linearGradient><linearGradient id="f" x1="0" x2="1" y1=".5" y2=".5" xlink:href="#b"></linearGradient></defs><path fill="url(#a)" d="M825.493,769H1366V0H787.67c-34.018,19.44-80.6,54.269-112.17,112.5-46.16,85.132-57.327,214.893,2,262,67.775,53.815,176.03-41.145,240,6,71.738,52.87,78.814,222.855-4,323C887.855,734.511,856.568,755.2,825.493,769Z" data-name="Path 2"></path><path fill="url(#b)" d="M1230,181c15.286,107.84,67.584,118.235,80,206,17.149,121.223-59.333,264.966-124,264-47.963-.716-26.671-130.619-132-228-77.4-71.562-197.516-104.326-228-70-5.268,5.932-7.568,13.54-7.932,22.159,36.815-9.023,72.151-14.765,99.432,5.341,51.19,37.726,69.442,135.081,45.617,224.144A994.57,994.57,0,0,1,1036,685c31.9,39.344,47.912,65.3,60.586,84H1366V0H1256.013C1222.947,44.995,1222.509,128.156,1230,181Z" data-name="Path 3" opacity=".3"></path><path fill="url(#c)" d="M354.425,250.868c3.09-22-44.15-65.247-90.1-79.993-13.042-4.185-88.4-28.369-114.082,36.36-5.543,13.973-16.084,46.978-5.814,60.6,9.575,12.7,56.678,9.7,122.8-13.333C336.936,230.228,352.533,264.342,354.425,250.868Z" data-name="Path 4" opacity=".14"></path><path fill="url(#d)" d="M302.5,640.5C188.141,626.27,61.9,670.114,0,718.08V769H568.728C482.868,728.31,422.313,655.409,302.5,640.5Z" data-name="Path 5"></path><path fill="url(#e)" d="M0,675.837V755H523.728C437.868,714.31,377.313,641.409,257.5,626.5,166.35,615.158,67.651,640.71,0,675.837Z" data-name="Path 6" opacity=".19"></path><circle cx="11.5" cy="11.5" r="11.5" fill="#ffffff" data-name="Ellipse 1" opacity=".2" transform="translate(1096 75)" class="colorfff svgShape"></circle><circle cx="3" cy="3" r="3" fill="#ffffff" data-name="Ellipse 2" opacity=".12" transform="translate(749 362)" class="colorfff svgShape"></circle><circle cx="8" cy="8" r="8" fill="#ffffff" data-name="Ellipse 3" opacity=".2" transform="translate(1118 404)" class="colorfff svgShape"></circle><circle cx="7" cy="7" r="7" fill="#ffffff" data-name="Ellipse 4" opacity=".13" transform="translate(775 35)" class="colorfff svgShape"></circle><path fill="url(#f)" d="M816,287c27.106-49.532,13.91-119.492-20-138-25.707-14.031-48.9,9.377-72-6-22.227-14.8-19.04-48.639-19.675-73.317A271.263,271.263,0,0,0,675.5,112.5c-18.479,34.08-31.341,75.311-36.327,115.529A108.1,108.1,0,0,1,662,260c20.979,43.72,3.722,69.376,23,84C712.767,365.064,786.612,340.7,816,287Z" data-name="Path 7" opacity=".3"></path></svg></g></svg>